# xmcd
#
# Track frame offsets: 
#        150
#        35555
#        59973
#        80389
#        111971
#        133999
#        163640
#        173933
#        201437
#
# Disc length: 2971 seconds
#
# Revision: 1
# Processed by: cddbd v1.5.1PL0 Copyright (c) Steve Scherf et al.
# Submitted via: ExactAudioCopy v0.95b2
#
DISCID=890b9909
DTITLE=Stanley Cowell Trio - Dancers In Love
DYEAR=1999
DGENRE=Jazz
TTITLE0=A Whole New World
TTITLE1=Ole Texas
TTITLE2=Charleston Rag
TTITLE3=I Never Dreamed
TTITLE4=St. Croix
TTITLE5=Confirmation
TTITLE6=Dancers In Love
TTITLE7=But Not For Me
TTITLE8=As The Sun Goes Down
EXTD=YEAR: 2000
EXTT0=
EXTT1=
EXTT2=
EXTT3=
EXTT4=
EXTT5=
EXTT6=
EXTT7=
EXTT8=
PLAYORDER=
